<svg fill="#89d9ce" xmlns="http://www.w3.org/2000/svg" version="1.1" width="100px" height="100px" viewBox="0 0 400 400" xml:space="preserve">
<g transform="matrix(0.52 0 0 0.52 200 200)" id="Layer_1"  >
<path style="stroke: none; stroke-width: 1; stroke-dasharray: none; stroke-linecap: butt; stroke-dashoffset: 0; stroke-linejoin: miter; stroke-miterlimit: 4; fill: #89d9ce; fill-rule: nonzero; opacity: 1;"  transform=" translate(-256, -255.21)" d="M 256 62.24 c -106.82 0 -193.72 86.56 -193.72 192.94 s 86.9 193 193.72 193 s 193.72 -86.56 193.72 -192.95 S 362.82 62.24 256 62.24 Z m 0 369.89 c -98 0 -177.72 -79.38 -177.72 -176.95 S 158 78.24 256 78.24 s 177.72 79.38 177.72 176.94 S 354 432.13 256 432.13 Z m 127.58 -103.6 h 0 v 0 h 0 a 8 8 0 0 1 -10.9 2.91 l -20 -11.51 a 8 8 0 0 1 8 -13.87 l 12.91 7.41 A 130.31 130.31 0 0 0 387 263.19 H 372.18 a 8 8 0 0 1 0 -16 H 387 a 129.36 129.36 0 0 0 -13.56 -50.32 l -12.87 7.4 a 7.91 7.91 0 0 1 -4 1.07 a 8 8 0 0 1 -4 -14.94 l 12.8 -7.35 a 131.91 131.91 0 0 0 -37 -36.83 L 321 159 a 8 8 0 0 1 -13.84 -8 l 7.39 -12.75 A 130.71 130.71 0 0 0 264 124.73 v 14.76 a 8 8 0 0 1 -16 0 V 124.73 a 130.71 130.71 0 0 0 -50.56 13.5 L 204.83 151 A 8 8 0 1 1 191 159 l -7.41 -12.78 a 132 132 0 0 0 -37 36.82 l 12.8 7.36 a 8 8 0 1 1 -8 13.87 l -12.88 -7.4 A 129.36 129.36 0 0 0 125 247.18 h 14.86 a 8 8 0 0 1 0 16 H 125 a 130.31 130.31 0 0 0 13.53 50.33 l 12.9 -7.41 a 8 8 0 1 1 8 13.87 l -20 11.51 a 8 8 0 0 1 -10.89 -2.91 h 0 l 0 0 h 0 a 146.26 146.26 0 0 1 -19.71 -72.94 c 0 -0.14 0 -0.27 0 -0.41 s 0 -0.24 0 -0.36 A 145.42 145.42 0 0 1 128 182.59 a 7.54 7.54 0 0 1 0.38 -0.75 a 7.25 7.25 0 0 1 0.53 -0.79 a 148.09 148.09 0 0 1 52.63 -52.42 a 7.52 7.52 0 0 1 0.75 -0.5 a 8.52 8.52 0 0 1 0.8 -0.4 a 146.86 146.86 0 0 1 72.51 -19.25 h 0.72 a 146.86 146.86 0 0 1 72.51 19.25 a 8.52 8.52 0 0 1 0.8 0.4 a 7.52 7.52 0 0 1 0.75 0.5 a 148 148 0 0 1 52.63 52.42 a 7.25 7.25 0 0 1 0.53 0.79 c 0.14 0.25 0.27 0.5 0.38 0.75 a 145.42 145.42 0 0 1 19.33 72.23 c 0 0.12 0 0.24 0 0.37 s 0 0.26 0 0.4 a 146.26 146.26 0 0 1 -19.7 72.92 Z m -96.33 -73.37 a 31.24 31.24 0 0 0 -39.42 -30 l -27.56 -47.54 a 8 8 0 1 0 -13.84 8 L 234 233.15 a 31.09 31.09 0 0 0 22 53.14 a 31.5 31.5 0 0 0 8.15 -1.08 l 5.28 9.12 a 8 8 0 0 0 13.84 -8 L 278 277.22 A 31.13 31.13 0 0 0 287.25 255.16 Z m -46.43 0 a 15.16 15.16 0 0 1 7.59 -13.08 h 0 a 15.1 15.1 0 1 1 -7.6 13.08 Z m 61.61 84.5 H 209.57 a 8 8 0 0 0 -8 8 v 46.23 a 8 8 0 0 0 8 8 h 92.86 a 8 8 0 0 0 8 -8 V 347.66 A 8 8 0 0 0 302.43 339.66 Z m -8 46.23 H 217.57 V 355.66 h 76.86 Z" stroke-linecap="round" />
</g>
</svg>